<?xml version="1.0" encoding="utf-8"?>
<!-- Generator: Adobe Illustrator 26.3.1, SVG Export Plug-In . SVG Version: 6.00 Build 0)  -->
<svg version="1.1" id="Calque_1" xmlns="http://www.w3.org/2000/svg" xmlns:xlink="http://www.w3.org/1999/xlink" x="0px" y="0px"
	 width="32px" height="32px" viewBox="0 0 32 32" style="enable-background:new 0 0 32 32;" xml:space="preserve">
<style type="text/css">
	.st0{fill:#5895CC;}
	.st1{fill:none;stroke:#5895CC;stroke-width:3;stroke-linecap:round;}
</style>
<g id="add_x5F_to_x5F_cust_x5F_list" transform="translate(20 14)">
	<path id="Tracé_86" class="st0" d="M-1.7-14l0.2,0c0.5,0.1,0.8,0.6,0.8,1.1c-0.1,0.5-0.5,0.9-1,0.9c-0.1,0-0.1,0-0.2,0
		c-4.6,0-9.1,0-13.7,0c-0.7,0-1.4,0.3-1.9,0.9c-0.3,0.4-0.5,0.9-0.5,1.4c0,7.2,0,14.5,0,21.7c0,0.5,0,1,0,1.5c0,1.1,0.7,2,1.8,2.3
		c0.2,0,0.4,0.1,0.6,0.1H7.5c0.3,0,0.6,0,0.9-0.1c0.8-0.3,1.4-0.9,1.5-1.7c0-0.2,0-0.4,0-0.5c0-5,0-10.1,0-15.1c0-0.1,0-0.2,0-0.3
		c0.1-0.5,0.7-0.9,1.2-0.7c0.3,0.1,0.6,0.3,0.7,0.6C12-2,12-1.9,12-1.8v15.9c0,0,0,0.1,0,0.1c0,0.1,0,0.2,0,0.3
		c-0.3,1.8-1.7,3.2-3.5,3.5L8.1,18H-16c0,0-0.1,0-0.1,0c-0.2,0-0.4-0.1-0.6-0.1c-2-0.5-3.3-2.3-3.3-4.3c0-7.7,0-15.4,0-23.2
		c0-0.5,0.1-0.9,0.2-1.4c0.5-1.6,1.9-2.8,3.6-3c0.1,0,0.2,0,0.4,0H-1.7z"/>
	<path id="Tracé_90" class="st1" d="M-4-5.8V9.8"/>
	<path id="Tracé_91" class="st1" d="M3.8,2h-15.7"/>
</g>
</svg>
