<?xml version="1.0" encoding="utf-8"?>
<!-- Generator: Adobe Illustrator 26.3.1, SVG Export Plug-In . SVG Version: 6.00 Build 0)  -->
<svg version="1.1" id="Calque_1" xmlns="http://www.w3.org/2000/svg" xmlns:xlink="http://www.w3.org/1999/xlink" x="0px" y="0px"
	 width="60px" height="40.2px" viewBox="0 0 60 40.2" style="enable-background:new 0 0 60 40.2;" xml:space="preserve">
<style type="text/css">
	.st0{fill:#5895CC;}
</style>
<g id="Groupe_16" transform="translate(40 18.453)">
	<path id="Tracé_29" class="st0" d="M-33.5-13.9c0-1,0-1.8,0-2.6c-0.1-1.4,0.5-2,2-2c6.8,0.1,13.5,1.3,19.8,3.8
		c1.1,0.5,2.3,0.5,3.3,0c6.2-2.4,12.7-3.7,19.3-3.8c2.3,0,2.5,0.1,2.5,2.4c0,0.6,0,1.3,0,2.1c1.6,0,3.1,0,4.6,0c1.5-0.1,2,0.6,2,2
		c0,10.5,0,21.1,0,31.6c0,1.5-0.5,2.1-2,2.1c-18.7,0-37.3,0-56,0c-1.5,0-1.9-0.6-1.9-2c0-10.5,0-21.1,0-31.6c0-1.8,0.2-2.1,2.1-2.1
		C-36.5-13.9-35.1-13.9-33.5-13.9 M-30.9-15.9v30.5c6.6,0.2,13.2,1.5,19.4,3.9c0-0.1,0.1-0.2,0.1-0.3c0-9.7,0.1-19.5,0-29.2
		c-0.1-0.5-0.4-0.9-0.9-1.2c-1.5-0.6-3.1-1.2-4.6-1.6C-21.4-15.1-26.1-15.8-30.9-15.9 M10.8,14.7v-30.5c-0.6,0-1.1,0-1.7,0
		c-5.7,0.3-11.2,1.5-16.5,3.5c-0.9,0.2-1.6,1.1-1.4,2.1c0.1,9.1,0,18.2,0,27.3v1.6C-2.5,16.2,4.1,14.9,10.8,14.7 M13.4-11.3
		c0,0.7,0,1.3,0,1.9c0,8.2,0,16.4,0,24.6c0,1.5-0.5,2.2-2,2.1c-0.6,0-1.2,0-1.7,0C6,17.7,2.4,18.2-1.2,18.6l0.1,0.4h18.5v-30.4H13.4
		z M-37.4,19.1h18.6l0-0.5c-4.1-0.5-8.2-1-12.4-1.3c-2.1-0.2-2.3-0.3-2.3-2.4c0-8.1,0-16.2,0-24.3v-1.8h-3.9V19.1z"/>
	<path id="Tracé_30" class="st0" d="M-26.5-11.3l3.3,0.7c0.5,0.1,0.9,0.6,0.8,1.1l-0.1,3.9c-0.1,0.5-0.6,0.9-1.2,0.8c0,0,0,0,0,0
		l-3.3-0.7c-0.5-0.1-0.9-0.6-0.8-1.1l0-4C-27.6-11-27.1-11.4-26.5-11.3C-26.6-11.3-26.5-11.3-26.5-11.3"/>
	<path id="Tracé_31" class="st0" d="M-19.2-10l3.3,0.7c0.5,0.1,0.9,0.6,0.8,1.1l-0.1,3.9c-0.1,0.5-0.6,0.9-1.2,0.8c0,0,0,0,0,0
		l-3.3-0.7c-0.5-0.1-0.9-0.6-0.8-1.1l0-4C-20.3-9.7-19.8-10.1-19.2-10C-19.2-10-19.2-10-19.2-10"/>
	<path id="Tracé_32" class="st0" d="M-26.5-3.4l3.3,0.7c0.5,0.1,0.9,0.6,0.8,1.1l-0.1,3.9c-0.1,0.5-0.6,0.9-1.2,0.8c0,0,0,0,0,0
		l-3.3-0.7c-0.5-0.1-0.9-0.6-0.8-1.1l0-4C-27.6-3.1-27.1-3.5-26.5-3.4C-26.6-3.4-26.5-3.4-26.5-3.4"/>
	<path id="Tracé_33" class="st0" d="M-19.2-2.1l3.3,0.7c0.5,0.1,0.9,0.6,0.8,1.1l-0.1,3.9c-0.1,0.5-0.6,0.9-1.2,0.8c0,0,0,0,0,0
		l-3.3-0.7c-0.5-0.1-0.9-0.6-0.8-1.1l0-4C-20.3-1.8-19.8-2.2-19.2-2.1C-19.2-2.2-19.2-2.1-19.2-2.1"/>
	<path id="Tracé_34" class="st0" d="M-26.5,4.5l3.3,0.7c0.5,0.1,0.9,0.6,0.8,1.1l-0.1,3.9c-0.1,0.5-0.6,0.9-1.2,0.8c0,0,0,0,0,0
		l-3.3-0.7c-0.5-0.1-0.9-0.6-0.8-1.1l0-4C-27.6,4.8-27.1,4.4-26.5,4.5C-26.6,4.5-26.5,4.5-26.5,4.5"/>
	<path id="Tracé_35" class="st0" d="M-19.2,5.8l3.3,0.7c0.5,0.1,0.9,0.6,0.8,1.1l-0.1,3.9c-0.1,0.5-0.6,0.9-1.2,0.8c0,0,0,0,0,0
		l-3.3-0.7c-0.5-0.1-0.9-0.6-0.8-1.1l0-4C-20.3,6.1-19.8,5.7-19.2,5.8C-19.2,5.7-19.2,5.7-19.2,5.8"/>
	<path id="Tracé_36" class="st0" d="M6.8-11.3l-3.3,0.7C2.9-10.5,2.6-10,2.7-9.5l0.1,3.9C2.8-5,3.4-4.7,3.9-4.8c0,0,0,0,0,0
		l3.3-0.7C7.7-5.5,8.1-6,8-6.5l0-4C7.9-11,7.4-11.4,6.8-11.3C6.8-11.3,6.8-11.3,6.8-11.3"/>
	<path id="Tracé_37" class="st0" d="M-0.5-10l-3.3,0.7c-0.5,0.1-0.9,0.6-0.8,1.1l0.1,3.9C-4.5-3.7-4-3.4-3.4-3.5c0,0,0,0,0,0
		l3.3-0.7c0.5-0.1,0.9-0.6,0.8-1.1l0-4C0.6-9.7,0.1-10.1-0.5-10C-0.5-10-0.5-10-0.5-10"/>
	<path id="Tracé_38" class="st0" d="M6.8-3.4L3.4-2.7C2.9-2.6,2.6-2.1,2.7-1.6l0.1,3.9c0.1,0.5,0.6,0.9,1.2,0.8c0,0,0,0,0,0
		l3.3-0.7C7.7,2.4,8.1,1.9,8,1.4l0-4C7.9-3.1,7.4-3.5,6.8-3.4C6.8-3.4,6.8-3.4,6.8-3.4"/>
	<path id="Tracé_39" class="st0" d="M-0.5-2.1l-3.3,0.7c-0.5,0.1-0.9,0.6-0.8,1.1l0.1,3.9C-4.5,4.2-4,4.5-3.4,4.4c0,0,0,0,0,0
		l3.3-0.7c0.5-0.1,0.9-0.6,0.8-1.1l0-4C0.6-1.8,0.1-2.2-0.5-2.1C-0.5-2.2-0.5-2.1-0.5-2.1"/>
	<path id="Tracé_40" class="st0" d="M6.8,4.5L3.4,5.2C2.9,5.3,2.6,5.8,2.7,6.3l0.1,3.9c0.1,0.5,0.6,0.9,1.2,0.8c0,0,0,0,0,0
		l3.3-0.7C7.7,10.3,8.1,9.8,8,9.3l0-4C7.9,4.8,7.4,4.4,6.8,4.5C6.8,4.5,6.8,4.5,6.8,4.5"/>
	<path id="Tracé_41" class="st0" d="M-0.5,5.8l-3.3,0.7c-0.5,0.1-0.9,0.6-0.8,1.1l0.1,3.9c0.1,0.5,0.6,0.9,1.2,0.8c0,0,0,0,0,0
		l3.3-0.7c0.5-0.1,0.9-0.6,0.8-1.1l0-4C0.6,6.1,0.1,5.7-0.5,5.8C-0.5,5.7-0.5,5.7-0.5,5.8"/>
</g>
</svg>
