<svg id="Calque_1" data-name="Calque 1" xmlns="http://www.w3.org/2000/svg" width="32" height="32" viewBox="0 0 32 32"><g id="edit"><path id="Tracé_84" data-name="Tracé 84" d="M7.64,19.18,20.76,5.77l5.5,5.63L13.15,24.8a1,1,0,0,1-.6.3l-4.65.64a1.06,1.06,0,0,1-1.18-.92.89.89,0,0,1,0-.28l.62-4.76a1,1,0,0,1,.3-.61" fill="#5895cc"/><path id="Tracé_85" data-name="Tracé 85" d="M26.55,1.35l4,4.12a1.08,1.08,0,0,1,0,1.51L28,9.62,22.5,4l2.58-2.64a1,1,0,0,1,1.45,0l0,0" fill="#5895cc"/><path id="Tracé_86" data-name="Tracé 86" d="M18.29,0l.16,0a1,1,0,0,1,.75,1.12,1,1,0,0,1-1,.91H4.36A2.28,2.28,0,0,0,2.5,3,2.19,2.19,0,0,0,2,4.41V26.13c0,.49,0,1,0,1.48a2.3,2.3,0,0,0,1.76,2.26A2.49,2.49,0,0,0,4.4,30H27.54a2.55,2.55,0,0,0,.87-.13A2.27,2.27,0,0,0,30,28.08a3.12,3.12,0,0,0,0-.54V12.46a1.27,1.27,0,0,1,0-.34,1,1,0,0,1,1.21-.74,1,1,0,0,1,.69.6l.06.19v15.9a.36.36,0,0,0,0,.1,2.51,2.51,0,0,1,0,.27,4.35,4.35,0,0,1-3.47,3.49l-.41.07H4l-.08,0-.58-.1A4.37,4.37,0,0,1,0,27.59V4.42A4.49,4.49,0,0,1,.21,3.06a4.33,4.33,0,0,1,3.62-3l.36,0Z" fill="#5895cc"/></g></svg>