<svg id="icon_video" xmlns="http://www.w3.org/2000/svg" xmlns:xlink="http://www.w3.org/1999/xlink" width="46" height="34.518" viewBox="0 0 46 34.518">
  <defs>
    <filter id="Tracé_25" x="0" y="0" width="46" height="33.158" filterUnits="userSpaceOnUse">
      <feOffset dx="1" dy="1" input="SourceAlpha"/>
      <feGaussianBlur stdDeviation="1" result="blur"/>
      <feFlood flood-color="#707070" result="color"/>
      <feComposite operator="out" in="SourceGraphic" in2="blur"/>
      <feComposite operator="in" in="color"/>
      <feComposite operator="in" in2="SourceGraphic"/>
    </filter>
    <filter id="Tracé_48" x="7.971" y="0.64" width="33.736" height="33.878" filterUnits="userSpaceOnUse">
      <feOffset dy="1" input="SourceAlpha"/>
      <feGaussianBlur stdDeviation="3" result="blur-2"/>
      <feFlood flood-color="#fff" flood-opacity="0.471"/>
      <feComposite operator="in" in2="blur-2"/>
      <feComposite in="SourceGraphic"/>
    </filter>
  </defs>
  <g data-type="innerShadowGroup">
    <path id="Tracé_25-2" data-name="Tracé 25" d="M118.675,105.19H82.125a4.686,4.686,0,0,0-4.725,4.647V133.7a4.686,4.686,0,0,0,4.725,4.647h36.549A4.686,4.686,0,0,0,123.4,133.7V109.837A4.686,4.686,0,0,0,118.675,105.19Z" transform="translate(-77.4 -105.19)" fill="#f6f7f9"/>
    <g transform="matrix(1, 0, 0, 1, 0, 0)" filter="url(#Tracé_25)">
      <path id="Tracé_25-3" data-name="Tracé 25" d="M118.675,105.19H82.125a4.686,4.686,0,0,0-4.725,4.647V133.7a4.686,4.686,0,0,0,4.725,4.647h36.549A4.686,4.686,0,0,0,123.4,133.7V109.837A4.686,4.686,0,0,0,118.675,105.19Z" transform="translate(-77.4 -105.19)" fill="#fff"/>
    </g>
  </g>
  <g transform="matrix(1, 0, 0, 1, 0, 0)" filter="url(#Tracé_48)">
    <path id="Tracé_48-2" data-name="Tracé 48" d="M114.212,126.274l-11.575,5.89a2.08,2.08,0,0,1-3.037-1.817v-11.78a2.08,2.08,0,0,1,3.037-1.817l11.575,5.89A2.031,2.031,0,0,1,114.212,126.274Z" transform="translate(-82.63 -107.88)" fill="#474747"/>
  </g>
</svg>
