<svg id="icon_pdf_small" xmlns="http://www.w3.org/2000/svg" width="60" height="60" viewBox="0 0 60 60">
  <g id="Ellipse_4" data-name="Ellipse 4" fill="rgba(246,247,249,0.75)" stroke="#474747" stroke-width="2">
    <circle cx="30" cy="30" r="30" stroke="none"/>
    <circle cx="30" cy="30" r="29" fill="none"/>
  </g>
  <path id="Tracé_12" data-name="Tracé 12" d="M243.541,195.225c.908-.892,1.663-1.613,2.388-2.363a1.46,1.46,0,0,1,.664-.334,3.147,3.147,0,0,0,2.3-3.145c.011-5.807,0-11.614.015-17.42,0-.477-.136-.6-.6-.589-1.757.028-3.514.019-5.272.009a5.728,5.728,0,0,1-5.867-5.892c-.008-1.757-.018-3.515.009-5.272.007-.474-.128-.6-.6-.6-2.5.024-4.992,0-7.488.015a3.235,3.235,0,0,0-3.342,3.391c-.018,1.5-.018,1.5-1.492,1.5-1.067,0-1.067,0-1.065-1.1.006-3.224,1.586-5.451,4.381-6.173a7.254,7.254,0,0,1,1.818-.171c2.852,0,5.705.011,8.557-.011a2.292,2.292,0,0,1,1.846.809c3.5,3.8,7.249,7.363,10.961,10.959a2.192,2.192,0,0,1,.713,1.716c-.016,6.214-.005,12.429-.011,18.643a5.718,5.718,0,0,1-6.031,6.03h-1.879m3.3-26.433-7.061-7.068c0,1.424-.074,2.92.021,4.405a3,3,0,0,0,2.885,2.655c1.4.037,2.8.008,4.155.008" transform="translate(-207.525 -146.842)" fill="#474747"/>
  <path id="Tracé_13" data-name="Tracé 13" d="M312.883,436.492c0,1.6.016,3.206-.01,4.808-.007.457.1.6.589.608.67.016,1.322-.014,1.984-.008.168,0,.375-.05.464.163a.474.474,0,0,1-.149.55c-.018.018-.031.04-.049.058q-3.482,3.48-6.961,6.962c-.352.353-.63.307-.965-.029q-3.416-3.437-6.85-6.857c-.186-.185-.361-.366-.277-.655.064-.219.436-.18.665-.188.584-.021,1.162,0,1.754,0,.517,0,.632-.155.629-.647-.022-3.129-.012-6.258-.01-9.387,0-.967.01-.977.983-.978,2.442,0,4.885.016,7.327-.012.657-.007.9.2.889.877-.037,1.576-.012,3.154-.012,4.732" transform="translate(-277.887 -399.149)" fill="#283657"/>
  <path id="Tracé_14" data-name="Tracé 14" d="M182.965,265.042c2.369,0,4.738.017,7.106-.01.734-.008.986.278.979,1q-.039,3.82,0,7.641c.006.685-.253.961-.944.958q-7.183-.021-14.365,0c-.844,0-.948-.376-.958-1.388-.024-2.331-.024-4.5.008-6.823.014-1.015.1-1.392.917-1.384,2.42.021,4.839.008,7.259.008m-1.671,4.8v.534c0,2.106,0,2.1,2.137,1.842a1.775,1.775,0,0,0,1.646-1.256,3.431,3.431,0,0,0-.041-2.312,1.606,1.606,0,0,0-1.557-1.13c-.584-.012-1.169,0-1.752-.028-.339-.015-.444.123-.436.445.016.635,0,1.27,0,1.905m-4.566.017c0,.66.012,1.321,0,1.98-.009.364.186.4.479.4s.487-.047.475-.408.018-.816.033-1.151a.228.228,0,0,1,.235-.218,5.187,5.187,0,0,0,1.164-.053,1.383,1.383,0,0,0,1.207-1.574,1.257,1.257,0,0,0-1.357-1.312c-.558-.026-1.118,0-1.675-.034-.42-.027-.593.093-.566.542.036.607.009,1.218.01,1.828m9.515-.1c0,.739.017,1.349-.006,1.958-.015.379.082.542.5.536.4,0,.448-.18.454-.51.007-.413,0-.986,0-1.354a.149.149,0,0,1,.152-.149c.352.006.93.008,1.338,0,.349-.005.5-.091.492-.471s-.22-.386-.492-.38c-.355.008-.713-.021-1.066.007-.414.033-.449-.192-.434-.513.014-.3-.061-.623.436-.592s1.015,0,1.523.01c.278.007.338-.128.336-.371s0-.417-.348-.435c-.14-.007-1.974,0-2.694,0a.206.206,0,0,0-.206.2c-.012.53.009,1.441.015,2.059" transform="translate(-162.441 -246.142)" fill="#283657"/>
  <path id="Tracé_15" data-name="Tracé 15" d="M231,415.993a15.875,15.875,0,0,1-3.677-.2,5.575,5.575,0,0,1-4.151-5c-.12-2.692-.057-5.392-.069-8.088-.006-1.323.013-2.646-.008-3.969-.007-.45.043-.722.6-.663.625.065,1.455-.186,1.835.132.4.337.117,1.192.119,1.819.013,3.257.005,6.513.006,9.77a3.278,3.278,0,0,0,2.482,3.554,1.1,1.1,0,0,1,.454.25c.75.756,1.507,1.5,2.405,2.4" transform="translate(-206.579 -368.691)" fill="#474747"/>
  <path id="Tracé_16" data-name="Tracé 16" d="M264.111,304.652c-.013-.369-.082-.909.335-.958.882-.138,1.381.123,1.578.8a2.88,2.88,0,0,1,.013,1.5,1.381,1.381,0,0,1-1.781.787c-.181-.091-.148-.242-.15-.384-.006-.4.012-1.575.006-1.744" transform="translate(-244.266 -281.394)" fill="#283657"/>
  <path id="Tracé_17" data-name="Tracé 17" d="M210.019,305.182c-.333.035-.635-.065-.648-.594-.01-.412.123-.788.625-.751s1.159-.033,1.2.63-.843.68-1.176.715" transform="translate(-194.058 -281.571)" fill="#283657"/>
</svg>
