<svg xmlns="http://www.w3.org/2000/svg" width="41.21" height="34.88" viewBox="0 0 41.21 34.88">
    <path id="icon3d" d="M0,21.91c1.37-4.39,5.21-5.72,9-7.22,0-2.38,0-4.76,0-7.14a1.69,1.69,0,0,1,1-1.68Q14.78,3.13,19.58.3a1.72,1.72,0,0,1,1.94,0c3.34,2,6.72,3.83,10,5.8a1.87,1.87,0,0,1,.66,1.36c.06,2.4,0,4.81,0,7.22,3.75,1.5,7.6,2.83,9,7.22v1.83c-.81,2.89-3,4.5-5.5,5.72a33.31,33.31,0,0,1-11.17,2.87,1.18,1.18,0,0,1-1.43-.86,1.15,1.15,0,0,1,0-.26c0-.81.46-1.18,1.25-1.26a30.2,30.2,0,0,0,10.54-2.77,11.87,11.87,0,0,0,3.22-2.47,2.73,2.73,0,0,0,0-3.83C36.6,19,34.5,18.12,32.35,17.31c-.05.14-.1.2-.09.25.39,1.87-.64,2.77-2.17,3.57-2.85,1.51-5.62,3.18-8.4,4.83a1.93,1.93,0,0,1-2.2,0c-3-1.78-6-3.56-9.1-5.24A2.24,2.24,0,0,1,9,18.17a6.91,6.91,0,0,0,0-.91c-2.47,1-4.84,1.88-6.21,4.25a2.75,2.75,0,0,0,.45,3.3,10.49,10.49,0,0,0,4.26,2.93c1,.44,2.1.77,3.28,1.2a14.6,14.6,0,0,1,.48-2.08c.18-.47.5-1.13.88-1.22a1.89,1.89,0,0,1,1.5.51c1.4,1.31,2.72,2.71,4,4.1.85.87.68,1.76-.43,2.22q-2.86,1.19-5.77,2.29a1.18,1.18,0,0,1-1.58-.54,1.19,1.19,0,0,1-.07-.87c.06-.36.17-.71.24-1.06s.12-.65.18-1a25.47,25.47,0,0,1-3.17-1.14,42,42,0,0,1-4.83-2.9A6.26,6.26,0,0,1,0,23.55Zm21.8,1.2c2-1.18,3.83-2.4,5.79-3.29a3.46,3.46,0,0,0,2.32-4c-.21-2.13-.05-4.3-.05-6.61-2.69,1.55-5.24,3-7.78,4.5a.81.81,0,0,0-.27.61c0,2.86,0,5.72,0,8.77m-9.24-16c2.58,1.5,5,2.88,7.42,4.31a1.1,1.1,0,0,0,1.31,0c2.13-1.26,4.27-2.48,6.4-3.71.27-.16.52-.34.85-.56-2.6-1.5-5.11-3-7.62-4.39a.84.84,0,0,0-.66-.06c-2.54,1.44-5.06,2.91-7.7,4.44m-1.2,2.09c0,2.34.15,4.51,0,6.66a3.36,3.36,0,0,0,2.2,3.87c2,.92,3.86,2.16,5.9,3.34,0-3.08,0-6,0-8.91a.7.7,0,0,0-.31-.49c-2.52-1.47-5.05-2.93-7.73-4.47m1.8,20-.55,2.52,2.26-.88-1.71-1.64" fill="#5895cc"/>
</svg>