<svg id="icon_edit"
  xmlns="http://www.w3.org/2000/svg"
  xmlns:xlink="http://www.w3.org/1999/xlink" 
  width="32" height="32" viewBox="0 0 32 32">

  <path id="pen" d="M134.187,125.384,147.3,111.978l5.506,5.63-13.111,13.406a1.032,1.032,0,0,1-.6.3l-4.654.637a1.055,1.055,0,0,1-1.172-1.2l.622-4.759a1.076,1.076,0,0,1,.3-.612" transform="translate(-126.545 -106.209)" fill="#193251"/>
  <path id="pen_eraser" d="M450.511,20.424l4.031,4.122a1.083,1.083,0,0,1,0,1.508l-2.582,2.64-5.506-5.63,2.582-2.64a1.027,1.027,0,0,1,1.475,0" transform="translate(-423.959 -19.076)" fill="#193251"/>
  <path id="contour" d="M18.287,0l.162.044A1.026,1.026,0,0,1,19.2,1.16a1.02,1.02,0,0,1-.959.913c-.056,0-.113,0-.169,0q-6.856,0-13.713,0A2.273,2.273,0,0,0,2.5,2.988a2.227,2.227,0,0,0-.475,1.421q0,10.862,0,21.725c0,.49.008.981,0,1.471a2.317,2.317,0,0,0,1.761,2.268,2.532,2.532,0,0,0,.611.073H27.542a2.517,2.517,0,0,0,.869-.125,2.278,2.278,0,0,0,1.542-1.737,2.515,2.515,0,0,0,.045-.54Q30,20,30,12.46a1.431,1.431,0,0,1,.037-.342,1,1,0,0,1,1.9-.133c.024.059.041.122.062.182v15.9c-.008.035-.018.07-.023.106-.012.09-.017.181-.034.269a4.361,4.361,0,0,1-3.472,3.486L28.057,32H3.969c-.027-.007-.053-.017-.08-.022-.194-.035-.391-.057-.582-.1A4.357,4.357,0,0,1,0,27.594Q-.005,16.009,0,4.423A4.493,4.493,0,0,1,.21,3.062,4.353,4.353,0,0,1,3.828.045c.12-.014.239-.03.359-.045Z" transform="translate(0.001)" fill="#193251"/>

</svg>
