<svg id="icon_catalogue_round" xmlns="http://www.w3.org/2000/svg" xmlns:xlink="http://www.w3.org/1999/xlink" width="140" height="152" viewBox="0 0 140 152">
  <defs>
    <filter id="Ellipse_3">
      <feOffset dx="2" dy="2" input="SourceAlpha"/>
      <feGaussianBlur stdDeviation="2" result="blur"/>
      <feFlood flood-color="#5895cc" flood-opacity="0.749" result="color"/>
      <feComposite operator="out" in="SourceGraphic" in2="blur"/>
      <feComposite operator="in" in="color"/>
      <feComposite operator="in" in2="SourceGraphic"/>
    </filter>
    <clipPath id="clip-path">
      <rect id="Rectangle_96" data-name="Rectangle 96" width="60" height="40.188" fill="#193251"/>
    </clipPath>
  </defs>
  <g data-type="innerShadowGroup">
    <circle id="Ellipse_3-2" data-name="Ellipse 3" cx="50" cy="50" r="50" transform="translate(20)" fill="#fff"/>
    <g transform="matrix(1, 0, 0, 1, 0, 0)" filter="url(#Ellipse_3)">
      <circle id="Ellipse_3-3" data-name="Ellipse 3" cx="50" cy="50" r="50" transform="translate(20)" fill="#fff"/>
    </g>
  </g>
  <g id="icon_catalogue" transform="translate(40 29.906)">
    <g id="Groupe_16" data-name="Groupe 16" clip-path="url(#clip-path)">
      <path id="Tracé_29" data-name="Tracé 29" d="M6.516,4.527c0-.991.034-1.78-.008-2.565C6.433.542,7.047-.019,8.488,0A55.626,55.626,0,0,1,28.3,3.82a4.16,4.16,0,0,0,3.31.007A54.775,54.775,0,0,1,50.945.03c2.328-.038,2.463.1,2.468,2.367,0,.631,0,1.262,0,2.13,1.586,0,3.1.048,4.608-.014,1.45-.06,1.977.6,1.974,2q-.031,15.8,0,31.605c0,1.472-.514,2.074-2.047,2.071q-28.012-.05-56.023,0C.467,40.186,0,39.61,0,38.2c.035-10.535.015-21.07.022-31.6,0-1.847.233-2.054,2.149-2.063,1.368-.006,2.736,0,4.344,0M9.129,2.58V33.129a59.809,59.809,0,0,1,19.39,3.88,1.693,1.693,0,0,0,.111-.311c.022-9.736.054-19.473.022-29.209a1.671,1.671,0,0,0-.92-1.174A46.209,46.209,0,0,0,23.1,4.7,48.883,48.883,0,0,0,9.129,2.58M50.8,33.128V2.594c-.624,0-1.146-.021-1.665,0A55.728,55.728,0,0,0,32.608,6.082a1.83,1.83,0,0,0-1.421,2.052c.051,9.1.028,18.21.028,27.314v1.643A60.114,60.114,0,0,1,50.8,33.128M53.415,7.106c0,.725,0,1.3,0,1.869,0,8.206-.021,16.413.02,24.618.008,1.5-.533,2.179-2.046,2.065a8.778,8.778,0,0,0-1.744.031c-3.616.455-7.229.935-10.843,1.407l.064.437H57.38V7.106ZM2.6,37.536h18.56L21.2,37c-4.122-.45-8.239-.962-12.369-1.323-2.095-.183-2.318-.273-2.319-2.442q0-12.142,0-24.285V7.139H2.6Z" transform="translate(-0.001 0)" fill="#193251"/>
      <path id="Tracé_30" data-name="Tracé 30" d="M97.807,55.876l3.344.72a1,1,0,0,1,.774,1.142l-.067,3.888a1,1,0,0,1-1.181.813l-3.268-.656a1,1,0,0,1-.793-1.112l-.009-3.952a1,1,0,0,1,1.2-.843" transform="translate(-84.317 -48.748)" fill="#193251"/>
      <path id="Tracé_31" data-name="Tracé 31" d="M155.355,66l3.344.72a1,1,0,0,1,.774,1.142l-.067,3.888a1,1,0,0,1-1.181.813l-3.268-.656a1,1,0,0,1-.793-1.112l-.009-3.952a1,1,0,0,1,1.2-.843" transform="translate(-134.543 -57.582)" fill="#193251"/>
      <path id="Tracé_32" data-name="Tracé 32" d="M97.807,117.919l3.344.72a1,1,0,0,1,.774,1.142l-.067,3.888a1,1,0,0,1-1.181.813l-3.268-.656a1,1,0,0,1-.793-1.112l-.009-3.952a1,1,0,0,1,1.2-.843" transform="translate(-84.317 -102.897)" fill="#193251"/>
      <path id="Tracé_33" data-name="Tracé 33" d="M155.355,128.041l3.344.72a1,1,0,0,1,.774,1.142l-.067,3.888a1,1,0,0,1-1.181.813l-3.268-.656a1,1,0,0,1-.793-1.112l-.009-3.952a1,1,0,0,1,1.2-.843" transform="translate(-134.543 -111.732)" fill="#193251"/>
      <path id="Tracé_34" data-name="Tracé 34" d="M97.807,180l3.344.72a1,1,0,0,1,.774,1.142l-.067,3.888a1,1,0,0,1-1.181.813l-3.268-.656a1,1,0,0,1-.793-1.112l-.009-3.952a1,1,0,0,1,1.2-.843" transform="translate(-84.317 -157.081)" fill="#193251"/>
      <path id="Tracé_35" data-name="Tracé 35" d="M155.355,190.122l3.344.72a1,1,0,0,1,.774,1.142l-.067,3.888a1,1,0,0,1-1.181.813l-3.268-.656a1,1,0,0,1-.793-1.112l-.009-3.952a1,1,0,0,1,1.2-.843" transform="translate(-134.543 -165.915)" fill="#193251"/>
      <path id="Tracé_36" data-name="Tracé 36" d="M339.438,55.876l-3.344.72a1,1,0,0,0-.774,1.142l.067,3.888a1,1,0,0,0,1.181.813l3.268-.656a1,1,0,0,0,.793-1.112l.009-3.952a1,1,0,0,0-1.2-.843" transform="translate(-292.647 -48.748)" fill="#193251"/>
      <path id="Tracé_37" data-name="Tracé 37" d="M281.89,66l-3.344.72a1,1,0,0,0-.774,1.142l.067,3.888a1,1,0,0,0,1.181.813l3.268-.656a1,1,0,0,0,.793-1.112l.009-3.952a1,1,0,0,0-1.2-.843" transform="translate(-242.421 -57.582)" fill="#193251"/>
      <path id="Tracé_38" data-name="Tracé 38" d="M339.438,117.919l-3.344.72a1,1,0,0,0-.774,1.142l.067,3.888a1,1,0,0,0,1.181.813l3.268-.656a1,1,0,0,0,.793-1.112l.009-3.952a1,1,0,0,0-1.2-.843" transform="translate(-292.647 -102.897)" fill="#193251"/>
      <path id="Tracé_39" data-name="Tracé 39" d="M281.89,128.041l-3.344.72a1,1,0,0,0-.774,1.142l.067,3.888a1,1,0,0,0,1.181.813l3.268-.656a1,1,0,0,0,.793-1.112l.009-3.952a1,1,0,0,0-1.2-.843" transform="translate(-242.421 -111.732)" fill="#193251"/>
      <path id="Tracé_40" data-name="Tracé 40" d="M339.438,180l-3.344.72a1,1,0,0,0-.774,1.142l.067,3.888a1,1,0,0,0,1.181.813l3.268-.656a1,1,0,0,0,.793-1.112l.009-3.952a1,1,0,0,0-1.2-.843" transform="translate(-292.647 -157.081)" fill="#193251"/>
      <path id="Tracé_41" data-name="Tracé 41" d="M281.89,190.122l-3.344.72a1,1,0,0,0-.774,1.142l.067,3.888a1,1,0,0,0,1.181.813l3.268-.656a1,1,0,0,0,.793-1.112l.009-3.952a1,1,0,0,0-1.2-.843" transform="translate(-242.421 -165.915)" fill="#193251"/>
    </g>
  </g>
  <text id="TRANSFER_ROOM_CATALOGUE" data-name="TRANSFER ROOM
CATALOGUE" transform="translate(70 127)" fill="#193251" font-size="18" font-family="MyriadPro-Bold, Myriad Pro" font-weight="700"><tspan x="-69.849" y="0">TRANSFER ROOM</tspan><tspan x="-48.582" y="20">CATALOGUE</tspan></text>
</svg>
