<svg xmlns="http://www.w3.org/2000/svg" width="100%" height="100%"  viewBox="0 0 54 54">
    <defs>
        <filter id="Ellipse_home">
            <feOffset dx="2" dy="2" input="SourceAlpha"/>
            <feGaussianBlur stdDeviation="2" result="blur"/>
            <feFlood flood-color="#3b4569" result="color"/>
            <feComposite operator="out" in="SourceGraphic" in2="blur"/>
            <feComposite operator="in" in="color"/>
            <feComposite operator="in" in2="SourceGraphic"/>
        </filter>
    </defs>
    <circle cx="27" cy="27" r="27" fill="#193251"/>
    <g transform="matrix(1, 0, 0, 1, 0, 0)" filter="url(#Ellipse_help)">
        <circle cx="27" cy="27" r="27"/>
    </g>
    <g transform="translate(13.132 12.19)">
        <path d="M12.556.562A1.807,1.807,0,0,1,15.11.5q.034.032.066.066L27.24,13.3a1.807,1.807,0,0,1-1.31,3.05H1.8A1.807,1.807,0,0,1,.495,13.3Z"
              transform="translate(0 0)" fill="#fff"/>
        <path d="M78.3,200.021v11.248a1.779,1.779,0,0,1-1.779,1.779H74.9a1.779,1.779,0,0,1-1.779-1.779v-6.088a1.779,1.779,0,0,0-1.779-1.779H66.318a1.779,1.779,0,0,0-1.779,1.779v6.088a1.779,1.779,0,0,1-1.779,1.779H61.223a1.779,1.779,0,0,1-1.779-1.779V200.021a1.779,1.779,0,0,1,1.779-1.779H76.516a1.779,1.779,0,0,1,1.779,1.779"
              transform="translate(-55.002 -183.428)" fill="#fff"/>
    </g>
</svg>
