<svg id="icon_logout" xmlns="http://www.w3.org/2000/svg" width="54" height="54" viewBox="0 0 54 54">
  <circle id="Ellipse_1" data-name="Ellipse 1" cx="27" cy="27" r="27" fill="#193251"/>
  <path id="Tracé_95" data-name="Tracé 95" d="M15.665,31.515H7.8A7.825,7.825,0,0,1,0,23.679V7.837A7.825,7.825,0,0,1,7.8,0h7.869a7.825,7.825,0,0,1,7.8,7.837v.946a1.5,1.5,0,1,1-3,0V7.837A4.822,4.822,0,0,0,15.665,3H7.8A4.822,4.822,0,0,0,3,7.837V23.679a4.822,4.822,0,0,0,4.8,4.837h7.869a4.822,4.822,0,0,0,4.8-4.837v-.771a1.5,1.5,0,0,1,3,0v.771A7.825,7.825,0,0,1,15.665,31.515Z" transform="translate(14.735 11.242)" fill="#fff"/>
  <path id="Tracé_96" data-name="Tracé 96" d="M13.173,14.1c1.5,0,3-.013,4.5.008.428.006.554-.079.569-.482.014-.548-.013-1.082-.007-1.624,0-.138-.047-.307.153-.379a.484.484,0,0,1,.515.122c.017.015.038.025.055.04q3.254,2.852,6.512,5.7c.33.288.288.516-.027.792q-3.215,2.8-6.416,5.607a.634.634,0,0,1-.612.227c-.205-.052-.168-.357-.176-.544-.02-.475,0-.951,0-1.436,0-.423-.145-.517-.605-.515-2.931.017-5.854.01-8.781.009-.9,0-.914-.009-.915-.8,0-2,.015-4-.011-6-.007-.538.189-.741.82-.728,1.475.03,2.951.01,4.426.01" transform="translate(13.4 9.144)" fill="#fff"/>
</svg>
