<svg xmlns="http://www.w3.org/2000/svg" width="100%" height="100%" viewBox="0 0 60.517 54">
    <g>
        <path d="M16.488,37.919c-2.874,0-5.6.028-8.331-.014a13.033,13.033,0,0,1-3.252-.322A6.611,6.611,0,0,1,.048,31.149c-.055-8.121-.074-16.242,0-24.362C.092,2.722,3.113.038,7.492.021c8.12-.032,16.24-.01,24.36-.011,3.4,0,6.8-.027,10.2.009C46.685.068,49.424,2.74,49.446,7.3q.058,11.694,0,23.388c-.025,4.48-2.756,7.161-7.282,7.219-3.62.047-7.243.057-10.863-.012a5.113,5.113,0,0,0-3.463,1.114c-2.756,2.142-5.575,4.209-8.425,6.23-.559.4-1.612.819-2,.568a2.825,2.825,0,0,1-.881-2.019c-.117-1.88-.039-3.771-.039-5.869m2.836,4c2.842-2.095,5.342-4.009,7.931-5.8a4.89,4.89,0,0,1,2.523-.849c4.059-.087,8.121-.027,12.182-.043,3.123-.013,4.761-1.629,4.767-4.719q.02-11.534,0-23.069c-.005-3.1-1.64-4.72-4.757-4.722q-17.122-.014-34.243,0c-3.3,0-4.857,1.52-4.861,4.745q-.015,11.534,0,23.069c0,3.138,1.562,4.681,4.738,4.7,3.073.016,6.146,0,9.219,0,2.278,0,2.5.227,2.5,2.547,0,1.243,0,2.486,0,4.141"
              fill="#193251"/>
        <path d="M330.673,125.166c0,2.079.076,3.966-.038,5.841a2.882,2.882,0,0,1-.862,2.036c-.379.255-1.449-.148-2-.543-3.243-2.314-6.424-4.712-9.625-7.083-.806-.6-1.77-1.241-.943-2.354.9-1.207,1.82-.408,2.669.221l7.966,5.894c0-.915,0-1.518,0-2.122-.021-5.216-.315-4.557,4.712-4.582,2.359-.011,4.718.012,7.076-.006,3.072-.023,4.666-1.584,4.671-4.6q.018-11.692,0-23.384c0-2.7-1.169-4.066-3.919-4.508a1.518,1.518,0,0,1-1.384-1.541c.035-.7,1.06-1.078,1.636-1.089a6.569,6.569,0,0,1,6.462,6.5q.163,12.339,0,24.682a6.649,6.649,0,0,1-6.747,6.6c-2.575.1-5.155.03-7.733.036-.589,0-1.178,0-1.939,0"
              transform="translate(-286.654 -79.123)" fill="#193251"/>
        <path d="M115.863,70.81A13.709,13.709,0,1,1,129.517,84.4,13.674,13.674,0,0,1,115.863,70.81M128.1,60.47c-2.939,2.531-3.523,5.623-3.938,8.925H128.1Zm0,11.823h-3.807c-.046,3.6,1.641,7.428,3.807,8.545ZM131.1,60.469v8.881h3.827c-.3-3.325-1.021-6.3-3.827-8.881M131.078,81.2c2.845-2.633,3.582-5.623,3.844-8.909h-3.844Zm5.168-18.937c.609,2.518,1.17,4.836,1.732,7.151h2.376a10.716,10.716,0,0,0-4.108-7.151m4.1,10.028h-2.373l-1.732,7.1a10.731,10.731,0,0,0,4.105-7.1M118.8,72.217a10.685,10.685,0,0,0,4.106,7.177l-1.745-7.177Zm-.011-2.807c1.079,0,2.518-.061,2.518-.061s.991-4.649,1.483-7a10,10,0,0,0-4,7.064"
              transform="translate(-104.81 -51.859)" fill="#193251"/>
    </g>
</svg>
