<?xml version="1.0"?>
<svg width="564.782" height="492.469" xmlns="http://www.w3.org/2000/svg">
  <g>
    <path
      d="m321.312012,137.712997c0,0 -41.257019,-43.178795 -41.257019,-43.178795c0,0 -46.658997,45.001793 -46.658997,45.001793c0,0 -40.862991,-33.642998 -40.862991,-33.642998c0,0 -31.380005,45.937004 -23.21701,54.112007c0,0 289.543991,15.988998 289.543991,15.988998c5.442017,-3.633011 -19.212982,-65.467003 -19.212982,-65.467003c0,0 -41.080017,28.637993 -41.080017,28.637993c0,0 -42.014984,-47.774994 -42.014984,-47.774994c0,0 -35.23999,46.322998 -35.23999,46.322998z"
      stroke-width="12.5" stroke-miterlimit="4" stroke="#000000" fill="#ffffff" id="text2216"/>
    <path
      d="m176.014999,220.634003c-11.520004,-10.251999 1.746994,-70.727005 1.746994,-70.727005l278.306,13.914001c0,0 -19.028992,21.626007 -19.028992,21.626007l-23.619995,70.113998l-237.404007,-34.927002z"
      stroke-width="1px" fill-rule="evenodd" fill="#ffffff" id="path2229"/>
    <path
      d="m166.813995,162.498001c0,0 -3.526993,25.136002 -4.746002,33.681c-1.218994,8.240997 -2.287994,16.160995 -3.202988,23.791c-0.914001,7.630005 -1.504013,12.987 -1.809006,16.039001l0,11.910004c0,21.363983 4.25,41.350006 12.783005,59.96698c8.531998,18.312012 19.959991,34.323029 34.28299,48.057007c14.628006,13.429016 31.404999,24.113007 50.299011,32.048004c18.893997,7.630005 38.680008,11.434998 59.403,11.434998c20.721985,0 40.537994,-3.804993 59.432983,-11.434998c19.197998,-7.934998 35.945007,-18.618988 50.268005,-32.048004c14.628021,-13.733978 26.226013,-29.744995 34.759003,-48.057007c8.532013,-18.616974 12.782013,-38.602997 12.782013,-59.96698l0,-11.910004c-0.610016,-3.052002 -1.51001,-8.408997 -2.729004,-16.039001c-0.914001,-7.630005 -1.984009,-15.550003 -3.203003,-23.791c-1.218994,-8.544998 -6.136993,-21.132004 -7.050995,-28.761993c-0.438995,-3.665009 -32.526001,8.824997 -32.526001,8.824997l-10.39502,30.272995c0,0 -39.621979,-4.307007 -39.621979,-4.307007c0,0 -6.167999,33.118011 -6.167999,33.118011c0,0 -35.58902,-17.584 -35.58902,-17.584l-19.395996,31.037994c0,0 -26.276001,-31.453003 -26.276001,-31.453003c0,0 -28.381989,19.395004 -28.381989,19.395004c0,0 -12.485001,-38.375 -12.485001,-38.375l-33.186996,7.307007c0,0 -13.264008,-32.139999 -13.264008,-32.139999l-33.979004,-11.016006z"
      stroke-width="12.5" stroke-miterlimit="4" stroke="#000000" fill="#f4f4d1" id="text2193"/>
    <path
      d="m273.192993,419.282013l-28.367996,-22.300018l11.224991,-34.794006l-31.599991,-6.475983l9.358002,-41.772003l-40.526001,9.006012l-6.099991,-50.710022l-36.451004,17.259003l-15.025009,-35.227997l-21.333992,31.898987l-33.7174,-28.342987l-29.825401,21.089996l-24.633902,-8.345001c0,0 -64.439798,141.149017 38.335302,199.100006c100.566399,56.675018 208.662392,-50.385986 208.662392,-50.385986z"
      stroke-width="12.5" stroke-miterlimit="4" stroke="#000000" fill-rule="evenodd" fill="#f4f4d1" id="path2345"/>
  </g>
</svg>